<svg xmlns="http://www.w3.org/2000/svg" width="92.778" height="21.35" viewBox="0 0 92.778 21.35">
    <defs>
        <style>
            .cls-1{fill:#3c3a39}.cls-2{fill:#ff4858;stroke:#ff4858;stroke-miterlimit:10}
        </style>
    </defs>
    <g id="inPHR_Child" transform="translate(-876.87 -521.03)">
        <path id="패스_1013" d="M877.182 524.095a1.121 1.121 0 0 1-.312-.807 1.065 1.065 0 0 1 .323-.807 1.1 1.1 0 0 1 .79-.311 1.072 1.072 0 0 1 .768.311 1.056 1.056 0 0 1 .323.807 1.108 1.108 0 0 1-.323.807 1.054 1.054 0 0 1-.79.328 1.033 1.033 0 0 1-.779-.328zm.234 13.562a.784.784 0 0 1-.222-.579v-9.7a.784.784 0 0 1 .222-.579.772.772 0 0 1 .568-.228.729.729 0 0 1 .556.228.823.823 0 0 1 .211.579v9.7a.823.823 0 0 1-.211.579.806.806 0 0 1-1.124 0z" class="cls-1" data-name="패스 1013" transform="translate(0 -.35)"/>
        <path id="패스_1014" d="M891.517 530.479a4.383 4.383 0 0 1 1.791 1.808 5.847 5.847 0 0 1 .651 2.843v5.379a.769.769 0 0 1-.768.784.772.772 0 0 1-.567-.228.759.759 0 0 1-.223-.556v-5.379a3.7 3.7 0 0 0-1-2.8 3.644 3.644 0 0 0-2.626-.962 4.014 4.014 0 0 0-1.791.395 3.183 3.183 0 0 0-1.268 1.085 2.691 2.691 0 0 0-.467 1.541v6.111a.786.786 0 0 1-.211.567.742.742 0 0 1-.556.217.785.785 0 0 1-.567-.217.75.75 0 0 1-.223-.567v-9.718a.784.784 0 0 1 .223-.578.771.771 0 0 1 .567-.228.729.729 0 0 1 .556.228.823.823 0 0 1 .211.578v.7a4.675 4.675 0 0 1 1.624-1.2 4.926 4.926 0 0 1 2.069-.434 5.412 5.412 0 0 1 2.575.631z" class="cls-1" data-name="패스 1014" transform="translate(-3.026 -3.758)"/>
        <path id="패스_1015" d="M913.13 530.656a5.431 5.431 0 0 1 2.025 2.081 5.908 5.908 0 0 1 .74 2.937 6 6 0 0 1-.718 2.926 5.445 5.445 0 0 1-1.964 2.069 5.289 5.289 0 0 1-2.787.756 5.183 5.183 0 0 1-2.414-.567 5.038 5.038 0 0 1-1.8-1.563v6.058a.784.784 0 0 1-.223.579.772.772 0 0 1-.568.228.73.73 0 0 1-.556-.228.8.8 0 0 1-.211-.579v-4.633a.529.529 0 0 1-.022-.184v-4.862a5.908 5.908 0 0 1 .74-2.937 5.47 5.47 0 0 1 2.025-2.081 5.587 5.587 0 0 1 2.87-.757 5.514 5.514 0 0 1 2.863.757zm-.768 8.756a3.942 3.942 0 0 0 1.48-1.541 4.81 4.81 0 0 0 0-4.406 4.01 4.01 0 0 0-3.577-2.12 3.941 3.941 0 0 0-2.086.567 4.024 4.024 0 0 0-1.469 1.552 4.545 4.545 0 0 0-.534 2.2 3.97 3.97 0 0 0 .022.517.27.27 0 0 1 .022.106 4.176 4.176 0 0 0 1.329 2.648 3.883 3.883 0 0 0 2.726 1.035 4.03 4.03 0 0 0 2.087-.557z" class="cls-1" data-name="패스 1015" transform="translate(-12.317 -3.78)"/>
        <path id="패스_1016" d="M934.507 526.72a4.383 4.383 0 0 1 1.791 1.808 5.847 5.847 0 0 1 .651 2.843v5.379a.769.769 0 0 1-.768.784.772.772 0 0 1-.567-.228.76.76 0 0 1-.223-.556v-5.379a3.7 3.7 0 0 0-1-2.8 3.635 3.635 0 0 0-2.626-.962 4.014 4.014 0 0 0-1.791.395 3.183 3.183 0 0 0-1.268 1.085 2.691 2.691 0 0 0-.467 1.541v6.119a.786.786 0 0 1-.211.567.75.75 0 0 1-.556.217.785.785 0 0 1-.567-.217.75.75 0 0 1-.223-.567v-14.562a.784.784 0 0 1 .223-.579.772.772 0 0 1 .567-.228.73.73 0 0 1 .556.228.823.823 0 0 1 .211.579v5.541a4.673 4.673 0 0 1 1.624-1.2 4.926 4.926 0 0 1 2.069-.434 5.413 5.413 0 0 1 2.575.626z" class="cls-1" data-name="패스 1016" transform="translate(-22.101)"/>
        <path id="패스_1017" d="M953.973 530.088a.71.71 0 0 1 .5.64.51.51 0 0 1-.022.184.641.641 0 0 1-.256.395.9.9 0 0 1-.478.106c-.122 0-.328-.011-.629-.039a4.78 4.78 0 0 0-.484-.022 3.673 3.673 0 0 0-2.481.829 2.708 2.708 0 0 0-.962 2.153v6.186a.8.8 0 0 1-.2.579.885.885 0 0 1-1.135 0 .8.8 0 0 1-.2-.579v-9.746a.8.8 0 0 1 .2-.578.885.885 0 0 1 1.135 0 .8.8 0 0 1 .2.578v.912a4.059 4.059 0 0 1 1.5-1.346 4.183 4.183 0 0 1 1.964-.478 3.306 3.306 0 0 1 1.348.226z" class="cls-1" data-name="패스 1017" transform="translate(-31.392 -3.763)"/>
        <path id="패스_1018" d="M965.807 540.771a5.15 5.15 0 0 1-1.975-2.036 5.964 5.964 0 0 1-.712-2.9 6.156 6.156 0 0 1 .7-2.937 5.079 5.079 0 0 1 1.936-2.031 5.411 5.411 0 0 1 2.809-.729 4.935 4.935 0 0 1 3.933 1.841.777.777 0 0 1 .2.534.911.911 0 0 1-.439.756.785.785 0 0 1-.462.145 1.012 1.012 0 0 1-.784-.367 3.155 3.155 0 0 0-1.1-.807 3.357 3.357 0 0 0-1.357-.256 3.228 3.228 0 0 0-2.509 1.057 3.969 3.969 0 0 0-.962 2.8 4.217 4.217 0 0 0 .451 1.975 3.4 3.4 0 0 0 1.263 1.363 3.512 3.512 0 0 0 1.858.49 3.286 3.286 0 0 0 2.208-.718 1.251 1.251 0 0 1 .74-.284.844.844 0 0 1 .523.184.952.952 0 0 1 .384.74.756.756 0 0 1-.239.551 5.033 5.033 0 0 1-3.616 1.374 5.706 5.706 0 0 1-2.85-.745z" class="cls-2" data-name="패스 1018" transform="translate(-38.27 -3.887)"/>
        <path id="패스_1019" d="M991.964 526.963a4.289 4.289 0 0 1 1.724 1.791 5.97 5.97 0 0 1 .623 2.837v5.04a1.01 1.01 0 0 1-.289.745 1.062 1.062 0 0 1-1.469 0 1.019 1.019 0 0 1-.289-.745v-5.04a3.34 3.34 0 0 0-.873-2.509 3.187 3.187 0 0 0-2.32-.851 3.351 3.351 0 0 0-1.535.35 2.761 2.761 0 0 0-1.085.94 2.358 2.358 0 0 0-.389 1.33v5.774a1.048 1.048 0 0 1-.278.746.976.976 0 0 1-.74.295 1 1 0 0 1-.734-.295 1.011 1.011 0 0 1-.289-.746V522.7a.991.991 0 0 1 1.024-1.046.972.972 0 0 1 .74.289 1.057 1.057 0 0 1 .278.757v5.018a4.4 4.4 0 0 1 1.524-1.012 4.967 4.967 0 0 1 1.886-.356 5.124 5.124 0 0 1 2.491.613z" class="cls-2" data-name="패스 1019" transform="translate(-47.543 -.12)"/>
        <path id="패스_1020" d="M1007.069 524.453a1.356 1.356 0 0 1 0-1.9 1.291 1.291 0 0 1 1.869 0 1.357 1.357 0 0 1 0 1.9 1.291 1.291 0 0 1-1.869 0zm.2 13.129a1.019 1.019 0 0 1-.289-.745v-9.118a.991.991 0 0 1 1.024-1.046.972.972 0 0 1 .74.289 1.06 1.06 0 0 1 .284.756v9.118a1.029 1.029 0 0 1-.284.745.964.964 0 0 1-.74.295.977.977 0 0 1-.734-.294z" class="cls-2" data-name="패스 1020" transform="translate(-57.598 -.342)"/>
        <path id="패스_1021" d="M1016.677 537.181a3.158 3.158 0 0 1-1.074-1.352 4.787 4.787 0 0 1-.384-1.958v-11.182a1.035 1.035 0 0 1 .278-.74 1.049 1.049 0 0 1 1.446 0 1.012 1.012 0 0 1 .278.74v11.182a2.482 2.482 0 0 0 .284 1.252.826.826 0 0 0 .723.49h.5a.814.814 0 0 1 .651.289 1.093 1.093 0 0 1 .25.74.891.891 0 0 1-.384.74 1.58 1.58 0 0 1-.985.289h-.039a2.729 2.729 0 0 1-1.544-.49z" class="cls-2" data-name="패스 1021" transform="translate(-61.387 -.124)"/>
        <path id="패스_1022" d="M1033.651 521.949a1.025 1.025 0 0 1 .278.757v9.34a5.8 5.8 0 0 1-.734 2.9 5.442 5.442 0 0 1-1.986 2.047 5.333 5.333 0 0 1-2.8.745 5.509 5.509 0 0 1-2.821-.745 5.35 5.35 0 0 1-2-2.047 5.852 5.852 0 0 1-.723-2.9 6.182 6.182 0 0 1 .673-2.9 5.116 5.116 0 0 1 1.847-2.036 4.946 4.946 0 0 1 6.5 1.124v-5.53a.991.991 0 0 1 1.023-1.046 1.024 1.024 0 0 1 .743.291zm-3.421 13.446a3.484 3.484 0 0 0 1.274-1.385 4.4 4.4 0 0 0 0-3.922 3.527 3.527 0 0 0-1.274-1.374 3.555 3.555 0 0 0-3.638 0 3.558 3.558 0 0 0-1.285 1.374 4 4 0 0 0-.473 1.958 4.053 4.053 0 0 0 .473 1.964 3.548 3.548 0 0 0 1.285 1.385 3.387 3.387 0 0 0 1.819.5 3.293 3.293 0 0 0 1.819-.5z" class="cls-2" data-name="패스 1022" transform="translate(-64.781 -.124)"/>
    </g>
</svg>
