<svg xmlns="http://www.w3.org/2000/svg" width="218" height="88" viewBox="0 0 218 88">
    <defs>
        <filter id="사각형_207" width="218" height="88" x="0" y="0" filterUnits="userSpaceOnUse">
            <feOffset dy="3"/>
            <feGaussianBlur result="blur" stdDeviation="3"/>
            <feFlood flood-opacity=".161"/>
            <feComposite in2="blur" operator="in"/>
            <feComposite in="SourceGraphic"/>
        </filter>
        <style>
            .cls-3{fill:#074367}.cls-4{fill:none;stroke:#074367;stroke-miterlimit:10;stroke-width:.85px}
        </style>
    </defs>
    <g id="m_inphrcare" transform="translate(-444 -564.69)">
        <g filter="url(#사각형_207)" transform="translate(444 564.69)">
            <g id="사각형_207-2" fill="#fff" stroke="#f7f8fb" transform="translate(9 6)">
                <rect width="200" height="70" stroke="none" rx="6"/>
                <rect width="199" height="69" x=".5" y=".5" fill="none" rx="5.5"/>
            </g>
        </g>
        <g id="inPHRCare" transform="translate(474 590.69)">
            <path id="패스_746" fill="#45a6bd" d="M64.963 147.117h-1.715a.872.872 0 1 0 0 1.745h1.716a.159.159 0 0 1 .173.144v5.494a4.218 4.218 0 0 1-8.414 0v-5.494a.159.159 0 0 1 .166-.144h1.723a.872.872 0 0 0 0-1.745h-1.723a1.961 1.961 0 0 0-2.019 1.889v5.494a5.818 5.818 0 0 0 5.321 5.609v.108a6.069 6.069 0 0 1-2.516 4.578.159.159 0 0 0-.072.13.13.13 0 0 0 .058.13l.908.93h.123a1.28 1.28 0 0 0 .224-.058l.13-.1a5.826 5.826 0 0 0 1.442-1.572 8.2 8.2 0 0 0 1.442-3.915l.043-.281a6.179 6.179 0 0 0 3.237-1.564 5.429 5.429 0 0 0 1.781-4V149a1.954 1.954 0 0 0-2.019-1.889" transform="translate(-48.295 -141.263)"/>
            <path id="패스_747" d="M63.716 139H52.347a6.626 6.626 0 0 0-6.6 6.64v11.434a6.618 6.618 0 0 0 6.6 6.633H55.7a.721.721 0 1 0 0-1.442h-3.353a5.148 5.148 0 0 1-5.133-5.162v-11.449a5.148 5.148 0 0 1 5.133-5.162h11.37a5.155 5.155 0 0 1 5.133 5.162v11.434a5.155 5.155 0 0 1-5.133 5.162H63.1a.721.721 0 0 0-.721.721v3.237l-4.419-2.264a.719.719 0 0 0-.649 1.283l5.386 2.754a1.033 1.033 0 0 0 .195.065.669.669 0 0 0 .209.036.721.721 0 0 0 .721-.721v-3.641a6.618 6.618 0 0 0 6.489-6.633v-11.433A6.626 6.626 0 0 0 63.716 139" class="cls-3" transform="translate(-45.75 -139)"/>
            <path id="패스_748" d="M92.877 144.817a1.161 1.161 0 0 1-.317-.822 1.053 1.053 0 0 1 .339-.829 1.211 1.211 0 0 1 .8-.3 1.161 1.161 0 0 1 .793.3 1.067 1.067 0 0 1 .324.829 1.139 1.139 0 0 1-.324.822 1.117 1.117 0 0 1-.815.324 1.067 1.067 0 0 1-.8-.324m.3 16.286a.721.721 0 0 1-.209-.526v-11.9a.729.729 0 1 1 1.456 0v11.9a.739.739 0 0 1-1.247.526" class="cls-3" transform="translate(-58.811 -140.08)"/>
            <path id="패스_749" d="M107.486 150.426a5.1 5.1 0 0 1 2.091 2.163 6.986 6.986 0 0 1 .721 3.36v6.568a.721.721 0 0 1-.195.526.678.678 0 0 1-.5.2.649.649 0 0 1-.5-.2.721.721 0 0 1-.195-.526v-6.568a4.737 4.737 0 0 0-1.247-3.54 4.449 4.449 0 0 0-3.252-1.226 5.047 5.047 0 0 0-2.242.5 3.893 3.893 0 0 0-1.593 1.391 3.5 3.5 0 0 0-.584 1.961v7.476a.721.721 0 0 1-.187.526.642.642 0 0 1-.512.2.649.649 0 0 1-.5-.2.757.757 0 0 1-.2-.526v-11.9a.721.721 0 0 1 .2-.534.671.671 0 0 1 .5-.195.663.663 0 0 1 .512.195.721.721 0 0 1 .187.534v1.289a5.587 5.587 0 0 1 1.932-1.6 5.465 5.465 0 0 1 2.487-.577 6.23 6.23 0 0 1 3.042.721" class="cls-3" transform="translate(-60.494 -141.991)"/>
            <path id="패스_750" d="M127.8 150.643a6.316 6.316 0 0 1 2.314 2.451 7.606 7.606 0 0 1 0 6.965 6.366 6.366 0 0 1-2.314 2.451 6.208 6.208 0 0 1-3.295.894 5.9 5.9 0 0 1-2.956-.721 5.551 5.551 0 0 1-2.091-2.033v7.613a.691.691 0 1 1-1.377 0v-11.852a7.125 7.125 0 0 1 .873-3.419 6.4 6.4 0 0 1 8.845-2.378m-.721 10.685a5 5 0 0 0 1.817-1.954 6.114 6.114 0 0 0 0-5.566 5.09 5.09 0 0 0-1.817-1.968 4.982 4.982 0 0 0-5.162 0 5.126 5.126 0 0 0-1.81 1.968 6.229 6.229 0 0 0 0 5.566 4.934 4.934 0 0 0 6.972 1.954" class="cls-3" transform="translate(-65.932 -141.992)"/>
            <path id="패스_751" d="M147.559 148.266a5.148 5.148 0 0 1 2.091 2.163 6.986 6.986 0 0 1 .721 3.36v6.568a.721.721 0 0 1-.195.526.678.678 0 0 1-.5.2.649.649 0 0 1-.5-.2.721.721 0 0 1-.195-.526v-6.568a4.737 4.737 0 0 0-1.247-3.54 4.434 4.434 0 0 0-3.244-1.226 5.047 5.047 0 0 0-2.249.5 3.937 3.937 0 0 0-1.593 1.391 3.5 3.5 0 0 0-.584 1.961v7.476a.721.721 0 0 1-.187.526.642.642 0 0 1-.512.2.663.663 0 0 1-.5-.2.721.721 0 0 1-.195-.526v-17.636a.671.671 0 0 1 .692-.735.663.663 0 0 1 .512.195.721.721 0 0 1 .187.541v6.984a5.587 5.587 0 0 1 1.932-1.6 5.494 5.494 0 0 1 2.495-.577 6.2 6.2 0 0 1 3.035.721" class="cls-3" transform="translate(-71.678 -139.831)"/>
            <path id="패스_752" d="M166.112 150.509a.658.658 0 0 1 0 .195.642.642 0 0 1-.231.382.721.721 0 0 1-.425.108 3.8 3.8 0 0 1-.57-.05 5.265 5.265 0 0 0-.6-.05 4.4 4.4 0 0 0-2.163.519 3.735 3.735 0 0 0-1.485 1.442 3.915 3.915 0 0 0-.534 2.026v7.426a.728.728 0 1 1-1.456 0v-11.9a.729.729 0 1 1 1.456 0v1.464a5.147 5.147 0 0 1 1.8-1.752 4.635 4.635 0 0 1 2.379-.642c1.233 0 1.846.274 1.846.807" class="cls-3" transform="translate(-77.253 -141.98)"/>
            <path id="패스_753" d="M173.9 162.454a6.236 6.236 0 0 1-2.386-2.43 6.957 6.957 0 0 1-.865-3.453 7.274 7.274 0 0 1 .836-3.5 6.106 6.106 0 0 1 2.343-2.422 6.727 6.727 0 0 1 3.4-.865 6.02 6.02 0 0 1 4.758 2.2.923.923 0 0 1 .238.634 1.045 1.045 0 0 1-.512.93.922.922 0 0 1-.555.173 1.218 1.218 0 0 1-.952-.44 3.936 3.936 0 0 0-1.319-.966 4.167 4.167 0 0 0-1.637-.3 3.951 3.951 0 0 0-3.035 1.254 4.722 4.722 0 0 0-1.154 3.309 4.946 4.946 0 0 0 .548 2.358 4.045 4.045 0 0 0 1.528 1.622 4.326 4.326 0 0 0 2.249.584 4.016 4.016 0 0 0 2.668-.851 1.507 1.507 0 0 1 .9-.346 1.031 1.031 0 0 1 .627.216 1.146 1.146 0 0 1 .461.88.916.916 0 0 1-.288.663 6.164 6.164 0 0 1-4.369 1.637 6.835 6.835 0 0 1-3.453-.88" class="cls-3" transform="translate(-80.601 -142.008)"/>
            <path id="패스_754" d="M173.9 162.454a6.236 6.236 0 0 1-2.386-2.43 6.957 6.957 0 0 1-.865-3.453 7.274 7.274 0 0 1 .836-3.5 6.106 6.106 0 0 1 2.343-2.422 6.727 6.727 0 0 1 3.4-.865 6.02 6.02 0 0 1 4.758 2.2.923.923 0 0 1 .238.634 1.045 1.045 0 0 1-.512.93.922.922 0 0 1-.555.173 1.218 1.218 0 0 1-.952-.44 3.936 3.936 0 0 0-1.319-.966 4.167 4.167 0 0 0-1.637-.3 3.951 3.951 0 0 0-3.035 1.254 4.722 4.722 0 0 0-1.154 3.309 4.946 4.946 0 0 0 .548 2.358 4.045 4.045 0 0 0 1.528 1.622 4.326 4.326 0 0 0 2.249.584 4.016 4.016 0 0 0 2.668-.851 1.507 1.507 0 0 1 .9-.346 1.031 1.031 0 0 1 .627.216 1.146 1.146 0 0 1 .461.88.916.916 0 0 1-.288.663 6.164 6.164 0 0 1-4.369 1.637 6.835 6.835 0 0 1-3.489-.88z" class="cls-4" transform="translate(-80.601 -142.008)"/>
            <path id="패스_755" d="M197.949 150.662a6.561 6.561 0 0 1 2.408 2.437 6.936 6.936 0 0 1 .88 3.461V162a1.2 1.2 0 0 1-1.237 1.25 1.211 1.211 0 0 1-1.24-1.247v-.887a6.07 6.07 0 0 1-2.062 1.637 6 6 0 0 1-2.624.584 5.9 5.9 0 0 1-3.165-.88 6.071 6.071 0 0 1-2.228-2.422 7.21 7.21 0 0 1-.815-3.453 6.936 6.936 0 0 1 .872-3.461 6.424 6.424 0 0 1 2.415-2.437 6.654 6.654 0 0 1 3.41-.894 6.489 6.489 0 0 1 3.389.894m-1.2 9.856a4.217 4.217 0 0 0 1.548-1.64 4.816 4.816 0 0 0 .562-2.329 4.874 4.874 0 0 0-.562-2.343 4.2 4.2 0 0 0-1.543-1.651 4.139 4.139 0 0 0-5.912 1.687 4.794 4.794 0 0 0-.57 2.343 4.744 4.744 0 0 0 .57 2.329 4.258 4.258 0 0 0 5.948 1.637" class="cls-3" transform="translate(-85.406 -142.011)"/>
            <path id="패스_756" d="M197.949 150.662a6.561 6.561 0 0 1 2.408 2.437 6.936 6.936 0 0 1 .88 3.461V162a1.2 1.2 0 0 1-1.237 1.25 1.211 1.211 0 0 1-1.24-1.247v-.887a6.07 6.07 0 0 1-2.062 1.637 6 6 0 0 1-2.624.584 5.9 5.9 0 0 1-3.165-.88 6.071 6.071 0 0 1-2.228-2.422 7.21 7.21 0 0 1-.815-3.453 6.936 6.936 0 0 1 .872-3.461 6.424 6.424 0 0 1 2.415-2.437 6.654 6.654 0 0 1 3.41-.894 6.489 6.489 0 0 1 3.386.872zm-1.19 9.877a4.217 4.217 0 0 0 1.541-1.639 4.816 4.816 0 0 0 .562-2.329 4.874 4.874 0 0 0-.562-2.343 4.2 4.2 0 0 0-1.543-1.651 4.139 4.139 0 0 0-5.912 1.687 4.794 4.794 0 0 0-.57 2.343 4.744 4.744 0 0 0 .57 2.329 4.258 4.258 0 0 0 5.948 1.637z" class="cls-4" transform="translate(-85.406 -142.01)"/>
            <path id="패스_757" d="M217.7 150.1a1.125 1.125 0 0 1 .721.973.975.975 0 0 1 0 .245.937.937 0 0 1-.966.779 2.21 2.21 0 0 1-.368-.043 9.438 9.438 0 0 0-1.579-.173 4.506 4.506 0 0 0-2.812.807 2.574 2.574 0 0 0-1.074 2.163v7.13a1.247 1.247 0 0 1-.3.9 1.182 1.182 0 0 1-.908.317 1.247 1.247 0 0 1-.9-.3 1.218 1.218 0 0 1-.317-.916v-10.904a1.1 1.1 0 0 1 1.218-1.218 1.074 1.074 0 0 1 1.211 1.218v.469a5.091 5.091 0 0 1 1.8-1.348 5.414 5.414 0 0 1 2.278-.49 4.325 4.325 0 0 1 2.019.4" class="cls-3" transform="translate(-91.356 -141.987)"/>
            <path id="패스_758" d="M217.7 150.105a1.125 1.125 0 0 1 .721.973.975.975 0 0 1 0 .245.937.937 0 0 1-.966.779 2.211 2.211 0 0 1-.368-.043 9.44 9.44 0 0 0-1.579-.173 4.506 4.506 0 0 0-2.812.807 2.574 2.574 0 0 0-1.074 2.163v7.13a1.247 1.247 0 0 1-.3.9 1.182 1.182 0 0 1-.908.317 1.247 1.247 0 0 1-.9-.3 1.218 1.218 0 0 1-.317-.916v-10.909a1.1 1.1 0 0 1 1.218-1.218 1.074 1.074 0 0 1 1.211 1.218v.469a5.09 5.09 0 0 1 1.8-1.348 5.414 5.414 0 0 1 2.278-.49 4.326 4.326 0 0 1 2 .4z" class="cls-4" transform="translate(-91.356 -141.987)"/>
            <path id="패스_759" d="M233.855 157.15a1.132 1.132 0 0 1-.807.3h-9.221a4.326 4.326 0 0 0 1.543 2.761 4.744 4.744 0 0 0 3.115 1.053A4.867 4.867 0 0 0 230 161a4.548 4.548 0 0 0 1.3-.663 1.262 1.262 0 0 1 .8-.267 1.01 1.01 0 0 1 .721.245 1.045 1.045 0 0 1 .44.829.88.88 0 0 1-.389.721 6.576 6.576 0 0 1-2.055 1.074 7.159 7.159 0 0 1-2.343.418 7.3 7.3 0 0 1-3.569-.865 6.265 6.265 0 0 1-2.451-2.458 6.842 6.842 0 0 1-.887-3.489 7.21 7.21 0 0 1 .836-3.5 6.013 6.013 0 0 1 2.358-2.379 6.575 6.575 0 0 1 3.389-.872 6.128 6.128 0 0 1 3.23.829 5.537 5.537 0 0 1 2.091 2.321 7.728 7.728 0 0 1 .721 3.417 1.031 1.031 0 0 1-.317.771m-8.608-4.261a4.4 4.4 0 0 0-1.4 2.61h8.1a4.369 4.369 0 0 0-1.218-2.61 3.561 3.561 0 0 0-2.6-.981 4.189 4.189 0 0 0-2.884.981" class="cls-3" transform="translate(-94.81 -142.01)"/>
            <path id="패스_760" d="M233.855 157.15a1.132 1.132 0 0 1-.807.3h-9.221a4.326 4.326 0 0 0 1.543 2.761 4.744 4.744 0 0 0 3.115 1.053A4.867 4.867 0 0 0 230 161a4.548 4.548 0 0 0 1.3-.663 1.262 1.262 0 0 1 .8-.267 1.01 1.01 0 0 1 .721.245 1.045 1.045 0 0 1 .44.829.88.88 0 0 1-.389.721 6.576 6.576 0 0 1-2.055 1.074 7.159 7.159 0 0 1-2.343.418 7.3 7.3 0 0 1-3.569-.865 6.265 6.265 0 0 1-2.451-2.458 6.842 6.842 0 0 1-.887-3.489 7.21 7.21 0 0 1 .836-3.5 6.013 6.013 0 0 1 2.358-2.379 6.575 6.575 0 0 1 3.389-.872 6.128 6.128 0 0 1 3.23.829 5.537 5.537 0 0 1 2.091 2.321 7.728 7.728 0 0 1 .721 3.417 1.031 1.031 0 0 1-.337.789zm-8.608-4.261a4.4 4.4 0 0 0-1.4 2.61h8.125a4.369 4.369 0 0 0-1.218-2.61 3.561 3.561 0 0 0-2.6-.981 4.189 4.189 0 0 0-2.913.952z" class="cls-4" transform="translate(-94.81 -142.01)"/>
        </g>
    </g>
</svg>
