<svg xmlns="http://www.w3.org/2000/svg" width="176" height="81" viewBox="0 0 176 81">
    <defs>
        <filter id="m4ebq3po3a" width="140.7%" height="243.6%" x="-20%" y="-71.8%" filterUnits="objectBoundingBox">
            <feOffset dx="1" in="SourceAlpha" result="shadowOffsetOuter1"/>
            <feGaussianBlur in="shadowOffsetOuter1" result="shadowBlurOuter1" stdDeviation="6.5"/>
            <feColorMatrix in="shadowBlurOuter1" result="shadowMatrixOuter1" values="0 0 0 0 0.702859006 0 0 0 0 0.748810699 0 0 0 0 0.748810699 0 0 0 1 0"/>
            <feMerge>
                <feMergeNode in="shadowMatrixOuter1"/>
                <feMergeNode in="SourceGraphic"/>
            </feMerge>
        </filter>
    </defs>
    <g fill="none" fill-rule="evenodd">
        <g>
            <g filter="url(#m4ebq3po3a)" transform="translate(-633 -166) translate(653 187)">
                <path fill="#3D3A39" d="M.947 29.656C.69 29.4.56 29.072.56 28.674v-16.45c0-.397.13-.725.387-.982s.584-.386.983-.386c.397 0 .718.129.963.386.247.257.37.585.37.982v16.45c0 .398-.123.725-.37.982-.245.257-.566.386-.963.386-.4 0-.726-.129-.983-.386M.544 6.647C.18 6.274 0 5.818 0 5.28c0-.562.186-1.018.56-1.37.374-.348.83-.524 1.369-.524.513 0 .958.176 1.333.525.373.351.56.807.56 1.37 0 .537-.187.993-.56 1.366-.375.375-.83.561-1.369.561-.538 0-.988-.186-1.35-.56M20.114 11.698c1.32.701 2.356 1.725 3.105 3.07.748 1.344 1.123 2.952 1.123 4.82v9.12c0 .376-.13.69-.387.948-.258.258-.573.386-.947.386-.398 0-.725-.128-.981-.386-.258-.257-.387-.572-.387-.947v-9.12c0-2.08-.579-3.664-1.735-4.752-1.158-1.087-2.672-1.631-4.543-1.631-1.145 0-2.18.224-3.104.667-.924.444-1.654 1.058-2.193 1.84-.538.785-.806 1.655-.806 2.614V28.71c0 .398-.122.718-.368.964-.246.247-.568.369-.965.369-.398 0-.725-.122-.98-.369-.258-.246-.388-.566-.388-.964V12.224c0-.398.13-.725.387-.982.256-.257.583-.386.981-.386.397 0 .719.129.965.386s.368.584.368.982v1.193c.772-.864 1.707-1.544 2.807-2.034 1.097-.493 2.291-.737 3.578-.737 1.66 0 3.15.35 4.47 1.052M40.105 26.815c1.088-.631 1.942-1.502 2.562-2.613.618-1.11.928-2.355.928-3.736 0-1.38-.31-2.625-.928-3.735-.62-1.11-1.474-1.988-2.562-2.63-1.086-.644-2.296-.965-3.629-.965-1.334 0-2.538.321-3.612.964-1.077.643-1.925 1.52-2.544 2.631-.62 1.11-.93 2.355-.93 3.735 0 .399.013.69.035.877.025.046.036.105.036.176.233 1.823 1 3.32 2.297 4.489 1.299 1.17 2.87 1.754 4.718 1.754 1.333 0 2.543-.316 3.63-.947m1.332-14.854c1.485.854 2.654 2.03 3.507 3.525.855 1.497 1.282 3.157 1.282 4.98 0 1.825-.416 3.478-1.246 4.964-.83 1.485-1.964 2.654-3.402 3.507-1.438.854-3.046 1.28-4.823 1.28-1.52 0-2.911-.322-4.173-.965-1.264-.642-2.304-1.526-3.122-2.647V36.88c0 .399-.129.725-.386.983-.257.257-.586.387-.983.387s-.718-.13-.963-.387c-.246-.258-.368-.584-.368-.983v-7.855c-.025-.07-.036-.176-.036-.316v-8.243c0-1.823.426-3.483 1.28-4.98.854-1.496 2.022-2.67 3.508-3.525 1.485-.853 3.14-1.28 4.963-1.28s3.477.427 4.962 1.28M61.5 11.698c1.321.701 2.357 1.725 3.105 3.07.749 1.344 1.123 2.952 1.123 4.82v9.12c0 .376-.13.69-.387.948-.258.258-.573.386-.947.386-.398 0-.725-.128-.98-.386-.26-.257-.388-.572-.388-.947v-9.12c0-2.08-.579-3.664-1.735-4.752-1.158-1.087-2.672-1.631-4.543-1.631-1.145 0-2.18.224-3.103.667-.925.444-1.655 1.058-2.194 1.84-.537.785-.806 1.655-.806 2.614V28.71c0 .398-.122.718-.368.964-.246.247-.568.369-.964.369-.399 0-.726-.122-.982-.369-.257-.246-.387-.566-.387-.964V4.017c0-.397.13-.724.387-.981.256-.259.583-.387.982-.387.396 0 .718.128.964.387.246.257.368.584.368.981v9.4c.772-.864 1.707-1.544 2.807-2.034 1.097-.493 2.292-.737 3.578-.737 1.66 0 3.15.35 4.47 1.052M79.107 11.032c.573.257.858.62.858 1.086 0 .141-.01.247-.034.318-.093.327-.24.548-.438.665-.2.117-.474.175-.825.175-.21 0-.572-.022-1.087-.07-.187-.023-.468-.034-.842-.034-1.753 0-3.186.468-4.296 1.401-1.11.936-1.666 2.152-1.666 3.648v10.487c0 .422-.117.749-.35.983-.235.234-.562.351-.983.351-.422 0-.749-.117-.983-.351-.234-.234-.35-.561-.35-.983V12.19c0-.421.116-.748.35-.982.234-.234.561-.35.983-.35.421 0 .748.116.982.35.234.234.35.561.35.982v1.544c.68-.983 1.544-1.742 2.596-2.28 1.053-.538 2.187-.807 3.402-.807.982 0 1.759.13 2.333.386"/>
                <g>
                    <path fill="#0098A3" d="M13.113 26.88c1.065-.62 1.902-1.473 2.51-2.562.607-1.088.91-2.308.91-3.66 0-1.353-.303-2.572-.91-3.661-.608-1.089-1.445-1.947-2.51-2.578-1.066-.63-2.251-.946-3.557-.946-1.307 0-2.487.316-3.54.946-1.055.63-1.887 1.489-2.492 2.578-.608 1.089-.912 2.308-.912 3.661 0 .39.011.675.035.858.022.047.034.104.034.172.228 1.789.98 3.254 2.25 4.4 1.274 1.146 2.814 1.72 4.625 1.72 1.306 0 2.491-.31 3.557-.928m1.307-14.558c1.454.837 2.599 1.988 3.436 3.454.836 1.468 1.255 3.094 1.255 4.882 0 1.787-.407 3.409-1.22 4.863-.814 1.456-1.925 2.601-3.334 3.438-1.41.837-2.986 1.255-4.726 1.255-1.49 0-2.853-.315-4.09-.946-1.24-.63-2.258-1.495-3.06-2.596v10.071c0 .39-.126.711-.378.964-.253.252-.573.377-.962.377-.39 0-.706-.125-.946-.377-.24-.253-.36-.573-.36-.964v-7.7C.01 28.977 0 28.874 0 28.737v-8.078c0-1.788.418-3.414 1.255-4.882.836-1.466 1.982-2.617 3.436-3.454 1.456-.836 3.077-1.255 4.865-1.255 1.786 0 3.407.42 4.864 1.255" transform="translate(83.866)"/>
                    <path stroke="#0098A3" stroke-width="1.109" d="M13.113 26.88c1.065-.62 1.902-1.473 2.51-2.562.607-1.088.91-2.308.91-3.66 0-1.353-.303-2.572-.91-3.661-.608-1.089-1.445-1.947-2.51-2.578-1.066-.63-2.251-.946-3.557-.946-1.307 0-2.487.316-3.54.946-1.055.63-1.887 1.489-2.492 2.578-.608 1.089-.912 2.308-.912 3.661 0 .39.011.675.035.858.022.047.034.104.034.172.228 1.789.98 3.254 2.25 4.4 1.274 1.146 2.814 1.72 4.625 1.72 1.306 0 2.491-.31 3.557-.928zm1.307-14.558c1.454.837 2.599 1.988 3.436 3.454.836 1.468 1.255 3.094 1.255 4.882 0 1.787-.407 3.409-1.22 4.863-.814 1.456-1.925 2.601-3.334 3.438-1.41.837-2.986 1.255-4.726 1.255-1.49 0-2.853-.315-4.09-.946-1.24-.63-2.258-1.495-3.06-2.596v10.071c0 .39-.126.711-.378.964-.253.252-.573.377-.962.377-.39 0-.706-.125-.946-.377-.24-.253-.36-.573-.36-.964v-7.7C.01 28.977 0 28.874 0 28.737v-8.078c0-1.788.418-3.414 1.255-4.882.836-1.466 1.982-2.617 3.436-3.454 1.456-.836 3.077-1.255 4.865-1.255 1.786 0 3.407.42 4.864 1.255z" transform="translate(83.866)"/>
                    <path fill="#0098A3" d="M24.848 29.618c-.283-.282-.422-.64-.422-1.077v-18.04c0-.437.14-.795.422-1.078.283-.281.641-.423 1.078-.423.435 0 .788.142 1.058.423.27.283.403.641.403 1.078v18.04c0 .437-.134.795-.403 1.077-.27.283-.623.424-1.058.424-.437 0-.795-.141-1.078-.424m-.441-25.233c-.4-.41-.598-.91-.598-1.5 0-.616.205-1.116.617-1.5.409-.386.909-.577 1.5-.577.563 0 1.051.19 1.461.577.41.384.616.884.616 1.5 0 .59-.206 1.09-.616 1.5-.41.41-.91.615-1.5.615s-1.083-.205-1.48-.615" transform="translate(83.866)"/>
                    <path stroke="#0098A3" stroke-width="1.109" d="M24.848 29.618c-.283-.282-.422-.64-.422-1.077v-18.04c0-.437.14-.795.422-1.078.283-.281.641-.423 1.078-.423.435 0 .788.142 1.058.423.27.283.403.641.403 1.078v18.04c0 .437-.134.795-.403 1.077-.27.283-.623.424-1.058.424-.437 0-.795-.141-1.078-.424zm-.441-25.233c-.4-.41-.598-.91-.598-1.5 0-.616.205-1.116.617-1.5.409-.386.909-.577 1.5-.577.563 0 1.051.19 1.461.577.41.384.616.884.616 1.5 0 .59-.206 1.09-.616 1.5-.41.41-.91.615-1.5.615s-1.083-.205-1.48-.615z" transform="translate(83.866)"/>
                    <path fill="#0098A3" d="M34.676 28.176c-.988-1.243-1.48-2.841-1.48-4.79V1.462c0-.435.14-.79.422-1.057.283-.27.628-.404 1.039-.404.436 0 .788.134 1.058.404.27.268.403.622.403 1.057v21.926c0 1.103.225 2 .673 2.692.45.692 1.02 1.039 1.712 1.039h.962c.384 0 .693.135.923.404.231.269.346.623.346 1.057 0 .437-.16.789-.48 1.058-.321.27-.738.405-1.25.405h-.5c-1.565 0-2.84-.622-3.828-1.866" transform="translate(83.866)"/>
                    <path stroke="#0098A3" stroke-width="1.109" d="M34.676 28.176c-.988-1.243-1.48-2.841-1.48-4.79V1.462c0-.435.14-.79.422-1.057.283-.27.628-.404 1.039-.404.436 0 .788.134 1.058.404.27.268.403.622.403 1.057v21.926c0 1.103.225 2 .673 2.692.45.692 1.02 1.039 1.712 1.039h.962c.384 0 .693.135.923.404.231.269.346.623.346 1.057 0 .437-.16.789-.48 1.058-.321.27-.738.405-1.25.405h-.5c-1.565 0-2.84-.622-3.828-1.866z" transform="translate(83.866)"/>
                    <path fill="#0098A3" d="M44.562 28.176c-.988-1.243-1.48-2.841-1.48-4.79V1.462c0-.435.14-.79.422-1.057.283-.27.628-.404 1.039-.404.436 0 .788.134 1.058.404.27.268.403.622.403 1.057v21.926c0 1.103.226 2 .673 2.692.45.692 1.02 1.039 1.712 1.039h.962c.385 0 .693.135.923.404.231.269.346.623.346 1.057 0 .437-.16.789-.48 1.058-.321.27-.738.405-1.25.405h-.5c-1.565 0-2.84-.622-3.828-1.866" transform="translate(83.866)"/>
                    <path stroke="#0098A3" stroke-width="1.109" d="M44.562 28.176c-.988-1.243-1.48-2.841-1.48-4.79V1.462c0-.435.14-.79.422-1.057.283-.27.628-.404 1.039-.404.436 0 .788.134 1.058.404.27.268.403.622.403 1.057v21.926c0 1.103.226 2 .673 2.692.45.692 1.02 1.039 1.712 1.039h.962c.385 0 .693.135.923.404.231.269.346.623.346 1.057 0 .437-.16.789-.48 1.058-.321.27-.738.405-1.25.405h-.5c-1.565 0-2.84-.622-3.828-1.866z" transform="translate(83.866)"/>
                </g>
            </g>
        </g>
    </g>
</svg>
