<svg xmlns="http://www.w3.org/2000/svg" width="118.5" height="20.448" viewBox="0 0 118.5 20.448">
    <defs>
        <style>
            .cls-1{fill:#44bbc8}.cls-2{fill:#3a4b5f}
        </style>
    </defs>
    <g id="symlogo" transform="translate(-730.809 -421.128)">
        <path id="패스_56549" d="M354.806 376.937l.082.194a2.587 2.587 0 0 0 1.6 1.056c1.439.464 2.964.791 4.378 1.388a9.823 9.823 0 0 1 1.658.9 5.4 5.4 0 0 1 1.791 1.985 5.291 5.291 0 0 1-.051 4.786 7.2 7.2 0 0 1-3.618 3.26 10.639 10.639 0 0 1-4.868.709 12.307 12.307 0 0 1-6.291-2.179 1.082 1.082 0 0 1-.112-1.679l2.1-1.954a1.1 1.1 0 0 1 1.418-.046 7.475 7.475 0 0 0 4.7 1.561c1.092-.031 2.393-.51 2.2-1.8a1.352 1.352 0 0 0-.082-.245 2.836 2.836 0 0 0-1.929-1.413c-1.2-.408-2.449-.653-3.643-1.061a7.291 7.291 0 0 1-3.209-1.929 5.194 5.194 0 0 1-1.357-3.572 5.4 5.4 0 0 1 1.439-3.572 7.414 7.414 0 0 1 3.725-2.117 11.46 11.46 0 0 1 5.357-.163 11.736 11.736 0 0 1 3.906 1.533 1.087 1.087 0 0 1 .194 1.709l-.6.582c-.449.449-.918.893-1.388 1.342a1.072 1.072 0 0 1-1.393.077 5.434 5.434 0 0 0-4.592-1.021c-.793.174-1.691.74-1.415 1.669z" class="cls-1" transform="translate(381.779 50.321)"/>
        <path id="패스_56550" d="M394.536 385.673v4.486a1.084 1.084 0 0 1-1.084 1.084h-2.465a1.084 1.084 0 0 1-1.084-1.084v-4.486a1.022 1.022 0 0 0-.143-.537l-6.46-11.345a1.084 1.084 0 0 1 .941-1.621h2.849a1.09 1.09 0 0 1 .941.547l4.184 7.355 4.184-7.355a1.09 1.09 0 0 1 .941-.547h2.8a1.084 1.084 0 0 1 .941 1.616l-6.414 11.35a1.089 1.089 0 0 0-.138.537z" class="cls-1" transform="translate(364.676 50.078)"/>
        <path id="패스_56551" d="M431.059 388.962l-1.785-4.532v5.7a1.084 1.084 0 0 1-1.084 1.084h-2.465a1.084 1.084 0 0 1-1.084-1.084v-16.876a1.084 1.084 0 0 1 1.084-1.084h3a1.084 1.084 0 0 1 1.023.685l4.7 12.015 4.741-12.015a1.084 1.084 0 0 1 1.023-.685h2.977a1.084 1.084 0 0 1 1.084 1.084v16.853a1.084 1.084 0 0 1-1.084 1.084h-2.465a1.084 1.084 0 0 1-1.084-1.084v-5.7l-1.8 4.557a3.642 3.642 0 0 1-3.391 2.3 3.647 3.647 0 0 1-3.39-2.302z" class="cls-1" transform="translate(342.854 50.078)"/>
        <g id="그룹_3721" transform="translate(791.655 422.248)">
            <path id="패스_56552" d="M471.86 376.335l.031.066a.921.921 0 0 0 .573.378 13.961 13.961 0 0 1 1.565.511 3.33 3.33 0 0 1 .593.322 1.928 1.928 0 0 1 .639.706 1.908 1.908 0 0 1 0 1.714 2.588 2.588 0 0 1-1.289 1.166 3.816 3.816 0 0 1-1.739.251 4.21 4.21 0 0 1-2.614-1.079l1.33-1.233a2.665 2.665 0 0 0 1.933.762c.389 0 .854-.184.788-.645a.549.549 0 0 0-.031-.087 1.023 1.023 0 0 0-.69-.511c-.425-.148-.875-.235-1.3-.384a2.618 2.618 0 0 1-1.151-.685 1.888 1.888 0 0 1-.486-1.274 1.928 1.928 0 0 1 .512-1.274 2.65 2.65 0 0 1 1.33-.757 4.235 4.235 0 0 1 3.713.767l-.552.511c-.246.246-.511.486-.757.731a1.949 1.949 0 0 0-1.877-.593c-.29.102-.613.294-.521.637z" class="cls-2" transform="translate(-469.605 -374.141)"/>
            <path id="패스_56553" d="M483.4 374.65h5.314v1.657h-3.662v.905h2.864v1.652h-2.864v.905h3.662v1.652H483.4z" class="cls-2" transform="translate(-476.336 -374.389)"/>
            <path id="패스_56554" d="M500.854 380.6h-2.767l-.322.834H496l2.614-6.787h1.749l2.624 6.787H501.2zm-.629-1.652l-.757-1.964-.752 1.964z" class="cls-2" transform="translate(-482.492 -374.389)"/>
            <path id="패스_56555" d="M516.307 378.542l1.166 2.895h-1.816l-1.023-2.583h-1.662v2.583h-1.652v-6.787h3.88a2.1 2.1 0 0 1 1.095 3.892zm-.65-1.8a.45.45 0 0 0-.445-.445h-2.225v.9h2.225a.455.455 0 0 0 .445-.45z" class="cls-2" transform="translate(-489.976 -374.39)"/>
            <path id="패스_56556" d="M526.409 377.961a1.816 1.816 0 0 0 1.816 1.806 1.836 1.836 0 0 0 1.3-.542l1.187 1.146a3.473 3.473 0 1 1 .143-4.665l-1.258 1.089a1.811 1.811 0 0 0-3.2 1.176z" class="cls-2" transform="translate(-496.534 -374.309)"/>
            <path id="패스_56557" d="M542.72 374.68h1.647v6.772h-1.652v-2.327h-2.593v2.327h-1.652v-6.772h1.652v2.793h2.593z" class="cls-2" transform="translate(-503.239 -374.404)"/>
            <path id="패스_56558" d="M473.922 402.141v2.087h-1.652v-2.087l-2.68-4.711h1.9l1.6 2.818 1.606-2.818h1.882z" class="cls-2" transform="translate(-469.59 -385.518)"/>
            <path id="패스_56559" d="M489.726 400.738a3.473 3.473 0 1 1-1.017-2.461 3.478 3.478 0 0 1 1.017 2.461zm-1.652 0a1.826 1.826 0 1 0-1.826 1.826 1.826 1.826 0 0 0 1.826-1.826z" class="cls-2" transform="translate(-476.029 -385.435)"/>
            <path id="패스_56560" d="M502.7 397.425h1.662v3.875a3.008 3.008 0 1 1-6.015 0v-3.88H500v3.88a1.35 1.35 0 1 0 2.7 0z" class="cls-2" transform="translate(-483.64 -385.513)"/>
            <path id="패스_56561" d="M517.812 401.342l1.161 2.895h-1.816l-1.023-2.583h-1.662v2.583h-1.652v-6.787h3.88a2.1 2.1 0 0 1 1.1 3.892zm-.655-1.8a.455.455 0 0 0-.445-.45h-2.225V400h2.225a.455.455 0 0 0 .445-.453z" class="cls-2" transform="translate(-490.709 -385.528)"/>
            <path id="패스_56562" d="M534.634 404.228l-.962-2.414v2.419H532v-6.8h1.719l1.78 4.527 1.785-4.527H539v6.782h-1.652v-2.4l-.962 2.435z" class="cls-2" transform="translate(-500.079 -385.518)"/>
            <path id="패스_56563" d="M549 397.45h1.652v6.772H549z" class="cls-2" transform="translate(-508.383 -385.528)"/>
            <path id="패스_56564" d="M559.84 397.456h1.652v6.772h-1.811l-2.66-4.041v4.025h-1.651v-6.782h1.816l2.655 4.02z" class="cls-2" transform="translate(-511.495 -385.518)"/>
            <path id="패스_56565" d="M576.331 400.841a3.386 3.386 0 0 1-3.381 3.381h-2.88v-6.772h2.88a3.391 3.391 0 0 1 3.381 3.391zm-1.652 0a1.734 1.734 0 0 0-1.729-1.734h-1.228v3.463h1.228a1.734 1.734 0 0 0 1.729-1.729z" class="cls-2" transform="translate(-518.677 -385.528)"/>
        </g>
    </g>
</svg>
